<mxfile host="app.diagrams.net" modified="2023-04-12T00:41:17.792Z" agent="Mozilla/5.0 (Windows NT 10.0; Win64; x64) AppleWebKit/537.36 (KHTML, like Gecko) Chrome/109.0.0.0 Safari/537.36" etag="Xf71QLCZZdDO-ryNgKIh" version="21.1.5" type="google">
  <diagram id="C5RBs43oDa-KdzZeNtuy" name="Page-1">
    <mxGraphModel grid="1" page="1" gridSize="10" guides="1" tooltips="1" connect="1" arrows="1" fold="1" pageScale="1" pageWidth="827" pageHeight="1169" math="0" shadow="0">
      <root>
        <mxCell id="WIyWlLk6GJQsqaUBKTNV-0" />
        <mxCell id="WIyWlLk6GJQsqaUBKTNV-1" parent="WIyWlLk6GJQsqaUBKTNV-0" />
        <mxCell id="S_hXADYsKSw6LA0B8OWd-5" style="edgeStyle=orthogonalEdgeStyle;rounded=0;orthogonalLoop=1;jettySize=auto;html=1;" edge="1" parent="WIyWlLk6GJQsqaUBKTNV-1" target="QlEwMpr7gMGsfXz0xbbF-30">
          <mxGeometry relative="1" as="geometry">
            <mxPoint x="60" y="230" as="sourcePoint" />
          </mxGeometry>
        </mxCell>
        <mxCell id="S_hXADYsKSw6LA0B8OWd-18" style="edgeStyle=orthogonalEdgeStyle;rounded=0;orthogonalLoop=1;jettySize=auto;html=1;" edge="1" parent="WIyWlLk6GJQsqaUBKTNV-1" target="S_hXADYsKSw6LA0B8OWd-11">
          <mxGeometry relative="1" as="geometry">
            <mxPoint x="10" y="260" as="sourcePoint" />
          </mxGeometry>
        </mxCell>
        <mxCell id="QlEwMpr7gMGsfXz0xbbF-30" value="&lt;font style=&quot;vertical-align: inherit;&quot;&gt;&lt;font style=&quot;vertical-align: inherit;&quot;&gt;Adopciones&lt;/font&gt;&lt;/font&gt;" style="swimlane;fontStyle=0;childLayout=stackLayout;horizontal=1;startSize=30;horizontalStack=0;resizeParent=1;resizeParentMax=0;resizeLast=0;collapsible=1;marginBottom=0;whiteSpace=wrap;html=1;" vertex="1" parent="WIyWlLk6GJQsqaUBKTNV-1">
          <mxGeometry x="210" y="150" width="170" height="160" as="geometry" />
        </mxCell>
        <mxCell id="QlEwMpr7gMGsfXz0xbbF-31" value="IdAdoptante" style="text;strokeColor=none;fillColor=none;align=left;verticalAlign=middle;spacingLeft=4;spacingRight=4;overflow=hidden;points=[[0,0.5],[1,0.5]];portConstraint=eastwest;rotatable=0;whiteSpace=wrap;html=1;" vertex="1" parent="QlEwMpr7gMGsfXz0xbbF-30">
          <mxGeometry y="30" width="170" height="30" as="geometry" />
        </mxCell>
        <mxCell id="S_hXADYsKSw6LA0B8OWd-19" style="edgeStyle=orthogonalEdgeStyle;rounded=0;orthogonalLoop=1;jettySize=auto;html=1;exitX=1;exitY=0.5;exitDx=0;exitDy=0;" edge="1" parent="QlEwMpr7gMGsfXz0xbbF-30" source="QlEwMpr7gMGsfXz0xbbF-32">
          <mxGeometry relative="1" as="geometry">
            <mxPoint x="250" y="220" as="targetPoint" />
          </mxGeometry>
        </mxCell>
        <mxCell id="QlEwMpr7gMGsfXz0xbbF-32" value="IdMascota" style="text;strokeColor=none;fillColor=none;align=left;verticalAlign=middle;spacingLeft=4;spacingRight=4;overflow=hidden;points=[[0,0.5],[1,0.5]];portConstraint=eastwest;rotatable=0;whiteSpace=wrap;html=1;" vertex="1" parent="QlEwMpr7gMGsfXz0xbbF-30">
          <mxGeometry y="60" width="170" height="30" as="geometry" />
        </mxCell>
        <mxCell id="QlEwMpr7gMGsfXz0xbbF-33" value="Fecha_Adopciòn" style="text;strokeColor=none;fillColor=none;align=left;verticalAlign=middle;spacingLeft=4;spacingRight=4;overflow=hidden;points=[[0,0.5],[1,0.5]];portConstraint=eastwest;rotatable=0;whiteSpace=wrap;html=1;" vertex="1" parent="QlEwMpr7gMGsfXz0xbbF-30">
          <mxGeometry y="90" width="170" height="30" as="geometry" />
        </mxCell>
        <mxCell id="QlEwMpr7gMGsfXz0xbbF-34" value="Observaciones" style="text;strokeColor=none;fillColor=none;align=left;verticalAlign=middle;spacingLeft=4;spacingRight=4;overflow=hidden;points=[[0,0.5],[1,0.5]];portConstraint=eastwest;rotatable=0;whiteSpace=wrap;html=1;" vertex="1" parent="QlEwMpr7gMGsfXz0xbbF-30">
          <mxGeometry y="120" width="170" height="40" as="geometry" />
        </mxCell>
        <mxCell id="S_hXADYsKSw6LA0B8OWd-8" style="edgeStyle=orthogonalEdgeStyle;rounded=0;orthogonalLoop=1;jettySize=auto;html=1;exitX=1;exitY=0.5;exitDx=0;exitDy=0;" edge="1" parent="QlEwMpr7gMGsfXz0xbbF-30" source="QlEwMpr7gMGsfXz0xbbF-31" target="QlEwMpr7gMGsfXz0xbbF-31">
          <mxGeometry relative="1" as="geometry" />
        </mxCell>
        <mxCell id="S_hXADYsKSw6LA0B8OWd-0" value="&lt;font style=&quot;vertical-align: inherit;&quot;&gt;&lt;font style=&quot;vertical-align: inherit;&quot;&gt;Adoptantes&lt;/font&gt;&lt;/font&gt;" style="swimlane;fontStyle=0;childLayout=stackLayout;horizontal=1;startSize=30;horizontalStack=0;resizeParent=1;resizeParentMax=0;resizeLast=0;collapsible=1;marginBottom=0;whiteSpace=wrap;html=1;" vertex="1" parent="WIyWlLk6GJQsqaUBKTNV-1">
          <mxGeometry x="530" y="10" width="190" height="240" as="geometry">
            <mxRectangle x="480" y="50" width="70" height="30" as="alternateBounds" />
          </mxGeometry>
        </mxCell>
        <mxCell id="S_hXADYsKSw6LA0B8OWd-1" value="IdAdoptante" style="text;strokeColor=none;fillColor=none;align=left;verticalAlign=middle;spacingLeft=4;spacingRight=4;overflow=hidden;points=[[0,0.5],[1,0.5]];portConstraint=eastwest;rotatable=0;whiteSpace=wrap;html=1;" vertex="1" parent="S_hXADYsKSw6LA0B8OWd-0">
          <mxGeometry y="30" width="190" height="30" as="geometry" />
        </mxCell>
        <mxCell id="S_hXADYsKSw6LA0B8OWd-2" value="Nombre Adoptante" style="text;strokeColor=none;fillColor=none;align=left;verticalAlign=middle;spacingLeft=4;spacingRight=4;overflow=hidden;points=[[0,0.5],[1,0.5]];portConstraint=eastwest;rotatable=0;whiteSpace=wrap;html=1;" vertex="1" parent="S_hXADYsKSw6LA0B8OWd-0">
          <mxGeometry y="60" width="190" height="30" as="geometry" />
        </mxCell>
        <mxCell id="S_hXADYsKSw6LA0B8OWd-3" value="Documento Adoptante&amp;nbsp;" style="text;strokeColor=none;fillColor=none;align=left;verticalAlign=middle;spacingLeft=4;spacingRight=4;overflow=hidden;points=[[0,0.5],[1,0.5]];portConstraint=eastwest;rotatable=0;whiteSpace=wrap;html=1;" vertex="1" parent="S_hXADYsKSw6LA0B8OWd-0">
          <mxGeometry y="90" width="190" height="30" as="geometry" />
        </mxCell>
        <mxCell id="S_hXADYsKSw6LA0B8OWd-4" value="Direcciòn Adptante" style="text;strokeColor=none;fillColor=none;align=left;verticalAlign=middle;spacingLeft=4;spacingRight=4;overflow=hidden;points=[[0,0.5],[1,0.5]];portConstraint=eastwest;rotatable=0;whiteSpace=wrap;html=1;" vertex="1" parent="S_hXADYsKSw6LA0B8OWd-0">
          <mxGeometry y="120" width="190" height="40" as="geometry" />
        </mxCell>
        <mxCell id="S_hXADYsKSw6LA0B8OWd-9" value="Telefono Adoptante" style="text;strokeColor=none;fillColor=none;align=left;verticalAlign=middle;spacingLeft=4;spacingRight=4;overflow=hidden;points=[[0,0.5],[1,0.5]];portConstraint=eastwest;rotatable=0;whiteSpace=wrap;html=1;" vertex="1" parent="S_hXADYsKSw6LA0B8OWd-0">
          <mxGeometry y="160" width="190" height="40" as="geometry" />
        </mxCell>
        <mxCell id="S_hXADYsKSw6LA0B8OWd-10" value="Correo Adoptante&amp;nbsp;" style="text;strokeColor=none;fillColor=none;align=left;verticalAlign=middle;spacingLeft=4;spacingRight=4;overflow=hidden;points=[[0,0.5],[1,0.5]];portConstraint=eastwest;rotatable=0;whiteSpace=wrap;html=1;" vertex="1" parent="S_hXADYsKSw6LA0B8OWd-0">
          <mxGeometry y="200" width="190" height="40" as="geometry" />
        </mxCell>
        <mxCell id="S_hXADYsKSw6LA0B8OWd-7" style="edgeStyle=orthogonalEdgeStyle;rounded=0;orthogonalLoop=1;jettySize=auto;html=1;entryX=0.006;entryY=0.05;entryDx=0;entryDy=0;entryPerimeter=0;" edge="1" parent="WIyWlLk6GJQsqaUBKTNV-1" source="QlEwMpr7gMGsfXz0xbbF-31" target="S_hXADYsKSw6LA0B8OWd-0">
          <mxGeometry relative="1" as="geometry" />
        </mxCell>
        <mxCell id="S_hXADYsKSw6LA0B8OWd-11" value="&lt;font style=&quot;vertical-align: inherit;&quot;&gt;&lt;font style=&quot;vertical-align: inherit;&quot;&gt;Donaciones&lt;/font&gt;&lt;/font&gt;" style="swimlane;fontStyle=0;childLayout=stackLayout;horizontal=1;startSize=30;horizontalStack=0;resizeParent=1;resizeParentMax=0;resizeLast=0;collapsible=1;marginBottom=0;whiteSpace=wrap;html=1;" vertex="1" parent="WIyWlLk6GJQsqaUBKTNV-1">
          <mxGeometry x="-85" y="450" width="190" height="200" as="geometry">
            <mxRectangle x="480" y="50" width="70" height="30" as="alternateBounds" />
          </mxGeometry>
        </mxCell>
        <mxCell id="S_hXADYsKSw6LA0B8OWd-12" value="Id Donaciòn" style="text;strokeColor=none;fillColor=none;align=left;verticalAlign=middle;spacingLeft=4;spacingRight=4;overflow=hidden;points=[[0,0.5],[1,0.5]];portConstraint=eastwest;rotatable=0;whiteSpace=wrap;html=1;" vertex="1" parent="S_hXADYsKSw6LA0B8OWd-11">
          <mxGeometry y="30" width="190" height="30" as="geometry" />
        </mxCell>
        <mxCell id="S_hXADYsKSw6LA0B8OWd-13" value="Nombre Donaciòn" style="text;strokeColor=none;fillColor=none;align=left;verticalAlign=middle;spacingLeft=4;spacingRight=4;overflow=hidden;points=[[0,0.5],[1,0.5]];portConstraint=eastwest;rotatable=0;whiteSpace=wrap;html=1;" vertex="1" parent="S_hXADYsKSw6LA0B8OWd-11">
          <mxGeometry y="60" width="190" height="30" as="geometry" />
        </mxCell>
        <mxCell id="S_hXADYsKSw6LA0B8OWd-14" value="Fecha Donaciòn" style="text;strokeColor=none;fillColor=none;align=left;verticalAlign=middle;spacingLeft=4;spacingRight=4;overflow=hidden;points=[[0,0.5],[1,0.5]];portConstraint=eastwest;rotatable=0;whiteSpace=wrap;html=1;" vertex="1" parent="S_hXADYsKSw6LA0B8OWd-11">
          <mxGeometry y="90" width="190" height="30" as="geometry" />
        </mxCell>
        <mxCell id="S_hXADYsKSw6LA0B8OWd-15" value="Observaciones" style="text;strokeColor=none;fillColor=none;align=left;verticalAlign=middle;spacingLeft=4;spacingRight=4;overflow=hidden;points=[[0,0.5],[1,0.5]];portConstraint=eastwest;rotatable=0;whiteSpace=wrap;html=1;" vertex="1" parent="S_hXADYsKSw6LA0B8OWd-11">
          <mxGeometry y="120" width="190" height="40" as="geometry" />
        </mxCell>
        <mxCell id="S_hXADYsKSw6LA0B8OWd-20" style="edgeStyle=orthogonalEdgeStyle;rounded=0;orthogonalLoop=1;jettySize=auto;html=1;exitX=1;exitY=0.5;exitDx=0;exitDy=0;" edge="1" parent="S_hXADYsKSw6LA0B8OWd-11" source="S_hXADYsKSw6LA0B8OWd-16">
          <mxGeometry relative="1" as="geometry">
            <mxPoint x="295" y="180" as="targetPoint" />
          </mxGeometry>
        </mxCell>
        <mxCell id="S_hXADYsKSw6LA0B8OWd-16" value="Id Tipo Donaciòn" style="text;strokeColor=none;fillColor=none;align=left;verticalAlign=middle;spacingLeft=4;spacingRight=4;overflow=hidden;points=[[0,0.5],[1,0.5]];portConstraint=eastwest;rotatable=0;whiteSpace=wrap;html=1;" vertex="1" parent="S_hXADYsKSw6LA0B8OWd-11">
          <mxGeometry y="160" width="190" height="40" as="geometry" />
        </mxCell>
        <mxCell id="S_hXADYsKSw6LA0B8OWd-21" value="Tipo de Donaciòn" style="swimlane;fontStyle=0;childLayout=stackLayout;horizontal=1;startSize=30;horizontalStack=0;resizeParent=1;resizeParentMax=0;resizeLast=0;collapsible=1;marginBottom=0;whiteSpace=wrap;html=1;" vertex="1" parent="WIyWlLk6GJQsqaUBKTNV-1">
          <mxGeometry x="210" y="585" width="140" height="90" as="geometry" />
        </mxCell>
        <mxCell id="S_hXADYsKSw6LA0B8OWd-22" value="Id Tipo de Donaciòn" style="text;strokeColor=none;fillColor=none;align=left;verticalAlign=middle;spacingLeft=4;spacingRight=4;overflow=hidden;points=[[0,0.5],[1,0.5]];portConstraint=eastwest;rotatable=0;whiteSpace=wrap;html=1;" vertex="1" parent="S_hXADYsKSw6LA0B8OWd-21">
          <mxGeometry y="30" width="140" height="30" as="geometry" />
        </mxCell>
        <mxCell id="S_hXADYsKSw6LA0B8OWd-23" value="Nombre Tipo de Donaciòn" style="text;strokeColor=none;fillColor=none;align=left;verticalAlign=middle;spacingLeft=4;spacingRight=4;overflow=hidden;points=[[0,0.5],[1,0.5]];portConstraint=eastwest;rotatable=0;whiteSpace=wrap;html=1;" vertex="1" parent="S_hXADYsKSw6LA0B8OWd-21">
          <mxGeometry y="60" width="140" height="30" as="geometry" />
        </mxCell>
        <mxCell id="S_hXADYsKSw6LA0B8OWd-26" value="GUAR DOGS&amp;nbsp;" style="rhombus;whiteSpace=wrap;html=1;" vertex="1" parent="WIyWlLk6GJQsqaUBKTNV-1">
          <mxGeometry x="-42.5" y="182.5" width="105" height="95" as="geometry" />
        </mxCell>
        <mxCell id="S_hXADYsKSw6LA0B8OWd-30" value="Mascota" style="swimlane;fontStyle=0;childLayout=stackLayout;horizontal=1;startSize=30;horizontalStack=0;resizeParent=1;resizeParentMax=0;resizeLast=0;collapsible=1;marginBottom=0;whiteSpace=wrap;html=1;" vertex="1" parent="WIyWlLk6GJQsqaUBKTNV-1">
          <mxGeometry x="380" y="370" width="190" height="180" as="geometry">
            <mxRectangle x="480" y="50" width="70" height="30" as="alternateBounds" />
          </mxGeometry>
        </mxCell>
        <mxCell id="S_hXADYsKSw6LA0B8OWd-31" value="Id Macota" style="text;strokeColor=none;fillColor=none;align=left;verticalAlign=middle;spacingLeft=4;spacingRight=4;overflow=hidden;points=[[0,0.5],[1,0.5]];portConstraint=eastwest;rotatable=0;whiteSpace=wrap;html=1;" vertex="1" parent="S_hXADYsKSw6LA0B8OWd-30">
          <mxGeometry y="30" width="190" height="30" as="geometry" />
        </mxCell>
        <mxCell id="S_hXADYsKSw6LA0B8OWd-32" value="Nombre Macota" style="text;strokeColor=none;fillColor=none;align=left;verticalAlign=middle;spacingLeft=4;spacingRight=4;overflow=hidden;points=[[0,0.5],[1,0.5]];portConstraint=eastwest;rotatable=0;whiteSpace=wrap;html=1;" vertex="1" parent="S_hXADYsKSw6LA0B8OWd-30">
          <mxGeometry y="60" width="190" height="30" as="geometry" />
        </mxCell>
        <mxCell id="S_hXADYsKSw6LA0B8OWd-33" value="Edad Mascota" style="text;strokeColor=none;fillColor=none;align=left;verticalAlign=middle;spacingLeft=4;spacingRight=4;overflow=hidden;points=[[0,0.5],[1,0.5]];portConstraint=eastwest;rotatable=0;whiteSpace=wrap;html=1;" vertex="1" parent="S_hXADYsKSw6LA0B8OWd-30">
          <mxGeometry y="90" width="190" height="30" as="geometry" />
        </mxCell>
        <mxCell id="S_hXADYsKSw6LA0B8OWd-47" style="edgeStyle=orthogonalEdgeStyle;rounded=0;orthogonalLoop=1;jettySize=auto;html=1;exitX=1;exitY=0.5;exitDx=0;exitDy=0;" edge="1" parent="S_hXADYsKSw6LA0B8OWd-30" source="S_hXADYsKSw6LA0B8OWd-34">
          <mxGeometry relative="1" as="geometry">
            <mxPoint x="360" y="135" as="targetPoint" />
          </mxGeometry>
        </mxCell>
        <mxCell id="S_hXADYsKSw6LA0B8OWd-34" value="Raza" style="text;strokeColor=none;fillColor=none;align=left;verticalAlign=middle;spacingLeft=4;spacingRight=4;overflow=hidden;points=[[0,0.5],[1,0.5]];portConstraint=eastwest;rotatable=0;whiteSpace=wrap;html=1;" vertex="1" parent="S_hXADYsKSw6LA0B8OWd-30">
          <mxGeometry y="120" width="190" height="30" as="geometry" />
        </mxCell>
        <mxCell id="S_hXADYsKSw6LA0B8OWd-37" style="edgeStyle=orthogonalEdgeStyle;rounded=0;orthogonalLoop=1;jettySize=auto;html=1;" edge="1" parent="S_hXADYsKSw6LA0B8OWd-30" source="S_hXADYsKSw6LA0B8OWd-36">
          <mxGeometry relative="1" as="geometry">
            <mxPoint x="220" y="280" as="targetPoint" />
          </mxGeometry>
        </mxCell>
        <mxCell id="S_hXADYsKSw6LA0B8OWd-36" value="Fecha de ingreso&amp;nbsp;" style="text;strokeColor=none;fillColor=none;align=left;verticalAlign=middle;spacingLeft=4;spacingRight=4;overflow=hidden;points=[[0,0.5],[1,0.5]];portConstraint=eastwest;rotatable=0;whiteSpace=wrap;html=1;" vertex="1" parent="S_hXADYsKSw6LA0B8OWd-30">
          <mxGeometry y="150" width="190" height="30" as="geometry" />
        </mxCell>
        <mxCell id="S_hXADYsKSw6LA0B8OWd-38" value="Historia Clinica&amp;nbsp;" style="swimlane;fontStyle=0;childLayout=stackLayout;horizontal=1;startSize=30;horizontalStack=0;resizeParent=1;resizeParentMax=0;resizeLast=0;collapsible=1;marginBottom=0;whiteSpace=wrap;html=1;" vertex="1" parent="WIyWlLk6GJQsqaUBKTNV-1">
          <mxGeometry x="530" y="650" width="140" height="120" as="geometry" />
        </mxCell>
        <mxCell id="S_hXADYsKSw6LA0B8OWd-39" value="Id Historia clinica&amp;nbsp;" style="text;strokeColor=none;fillColor=none;align=left;verticalAlign=middle;spacingLeft=4;spacingRight=4;overflow=hidden;points=[[0,0.5],[1,0.5]];portConstraint=eastwest;rotatable=0;whiteSpace=wrap;html=1;" vertex="1" parent="S_hXADYsKSw6LA0B8OWd-38">
          <mxGeometry y="30" width="140" height="30" as="geometry" />
        </mxCell>
        <mxCell id="S_hXADYsKSw6LA0B8OWd-40" value="Fecha&amp;nbsp; de historia clinica" style="text;strokeColor=none;fillColor=none;align=left;verticalAlign=middle;spacingLeft=4;spacingRight=4;overflow=hidden;points=[[0,0.5],[1,0.5]];portConstraint=eastwest;rotatable=0;whiteSpace=wrap;html=1;" vertex="1" parent="S_hXADYsKSw6LA0B8OWd-38">
          <mxGeometry y="60" width="140" height="30" as="geometry" />
        </mxCell>
        <mxCell id="S_hXADYsKSw6LA0B8OWd-41" value="Id Mascota&amp;nbsp;" style="text;strokeColor=none;fillColor=none;align=left;verticalAlign=middle;spacingLeft=4;spacingRight=4;overflow=hidden;points=[[0,0.5],[1,0.5]];portConstraint=eastwest;rotatable=0;whiteSpace=wrap;html=1;" vertex="1" parent="S_hXADYsKSw6LA0B8OWd-38">
          <mxGeometry y="90" width="140" height="30" as="geometry" />
        </mxCell>
        <mxCell id="S_hXADYsKSw6LA0B8OWd-43" value="Id Raza" style="swimlane;fontStyle=0;childLayout=stackLayout;horizontal=1;startSize=30;horizontalStack=0;resizeParent=1;resizeParentMax=0;resizeLast=0;collapsible=1;marginBottom=0;whiteSpace=wrap;html=1;" vertex="1" parent="WIyWlLk6GJQsqaUBKTNV-1">
          <mxGeometry x="740" y="490" width="140" height="60" as="geometry" />
        </mxCell>
        <mxCell id="S_hXADYsKSw6LA0B8OWd-44" value="Raza de mascota" style="text;strokeColor=none;fillColor=none;align=left;verticalAlign=middle;spacingLeft=4;spacingRight=4;overflow=hidden;points=[[0,0.5],[1,0.5]];portConstraint=eastwest;rotatable=0;whiteSpace=wrap;html=1;" vertex="1" parent="S_hXADYsKSw6LA0B8OWd-43">
          <mxGeometry y="30" width="140" height="30" as="geometry" />
        </mxCell>
        <mxCell id="S_hXADYsKSw6LA0B8OWd-49" value="&amp;nbsp;Vacunas por Macota" style="swimlane;fontStyle=0;childLayout=stackLayout;horizontal=1;startSize=30;horizontalStack=0;resizeParent=1;resizeParentMax=0;resizeLast=0;collapsible=1;marginBottom=0;whiteSpace=wrap;html=1;" vertex="1" parent="WIyWlLk6GJQsqaUBKTNV-1">
          <mxGeometry x="720" y="320" width="140" height="120" as="geometry" />
        </mxCell>
        <mxCell id="S_hXADYsKSw6LA0B8OWd-50" value="Id Mascotas&amp;nbsp;" style="text;strokeColor=none;fillColor=none;align=left;verticalAlign=middle;spacingLeft=4;spacingRight=4;overflow=hidden;points=[[0,0.5],[1,0.5]];portConstraint=eastwest;rotatable=0;whiteSpace=wrap;html=1;" vertex="1" parent="S_hXADYsKSw6LA0B8OWd-49">
          <mxGeometry y="30" width="140" height="30" as="geometry" />
        </mxCell>
        <mxCell id="S_hXADYsKSw6LA0B8OWd-53" style="edgeStyle=orthogonalEdgeStyle;rounded=0;orthogonalLoop=1;jettySize=auto;html=1;exitX=1;exitY=0.5;exitDx=0;exitDy=0;" edge="1" parent="S_hXADYsKSw6LA0B8OWd-49" source="S_hXADYsKSw6LA0B8OWd-51">
          <mxGeometry relative="1" as="geometry">
            <mxPoint x="270" y="75" as="targetPoint" />
          </mxGeometry>
        </mxCell>
        <mxCell id="S_hXADYsKSw6LA0B8OWd-51" value="Id Vacunas" style="text;strokeColor=none;fillColor=none;align=left;verticalAlign=middle;spacingLeft=4;spacingRight=4;overflow=hidden;points=[[0,0.5],[1,0.5]];portConstraint=eastwest;rotatable=0;whiteSpace=wrap;html=1;" vertex="1" parent="S_hXADYsKSw6LA0B8OWd-49">
          <mxGeometry y="60" width="140" height="30" as="geometry" />
        </mxCell>
        <mxCell id="S_hXADYsKSw6LA0B8OWd-52" value="Fecha de vacunas" style="text;strokeColor=none;fillColor=none;align=left;verticalAlign=middle;spacingLeft=4;spacingRight=4;overflow=hidden;points=[[0,0.5],[1,0.5]];portConstraint=eastwest;rotatable=0;whiteSpace=wrap;html=1;" vertex="1" parent="S_hXADYsKSw6LA0B8OWd-49">
          <mxGeometry y="90" width="140" height="30" as="geometry" />
        </mxCell>
        <mxCell id="S_hXADYsKSw6LA0B8OWd-48" style="edgeStyle=orthogonalEdgeStyle;rounded=0;orthogonalLoop=1;jettySize=auto;html=1;exitX=1;exitY=0.5;exitDx=0;exitDy=0;entryX=-0.014;entryY=0.192;entryDx=0;entryDy=0;entryPerimeter=0;" edge="1" parent="WIyWlLk6GJQsqaUBKTNV-1" source="S_hXADYsKSw6LA0B8OWd-33" target="S_hXADYsKSw6LA0B8OWd-49">
          <mxGeometry relative="1" as="geometry">
            <mxPoint x="700" y="330" as="targetPoint" />
            <Array as="points">
              <mxPoint x="590" y="475" />
              <mxPoint x="590" y="370" />
              <mxPoint x="708" y="370" />
            </Array>
          </mxGeometry>
        </mxCell>
        <mxCell id="S_hXADYsKSw6LA0B8OWd-54" value="Vacunas" style="swimlane;fontStyle=0;childLayout=stackLayout;horizontal=1;startSize=30;horizontalStack=0;resizeParent=1;resizeParentMax=0;resizeLast=0;collapsible=1;marginBottom=0;whiteSpace=wrap;html=1;" vertex="1" parent="WIyWlLk6GJQsqaUBKTNV-1">
          <mxGeometry x="990" y="385" width="180" height="150" as="geometry" />
        </mxCell>
        <mxCell id="S_hXADYsKSw6LA0B8OWd-55" value="Id vacunas" style="text;strokeColor=none;fillColor=none;align=left;verticalAlign=middle;spacingLeft=4;spacingRight=4;overflow=hidden;points=[[0,0.5],[1,0.5]];portConstraint=eastwest;rotatable=0;whiteSpace=wrap;html=1;" vertex="1" parent="S_hXADYsKSw6LA0B8OWd-54">
          <mxGeometry y="30" width="180" height="30" as="geometry" />
        </mxCell>
        <mxCell id="S_hXADYsKSw6LA0B8OWd-56" value="Nombre Vacunas" style="text;strokeColor=none;fillColor=none;align=left;verticalAlign=middle;spacingLeft=4;spacingRight=4;overflow=hidden;points=[[0,0.5],[1,0.5]];portConstraint=eastwest;rotatable=0;whiteSpace=wrap;html=1;" vertex="1" parent="S_hXADYsKSw6LA0B8OWd-54">
          <mxGeometry y="60" width="180" height="30" as="geometry" />
        </mxCell>
        <mxCell id="S_hXADYsKSw6LA0B8OWd-57" value="Caracteristicas de la Vacuna" style="text;strokeColor=none;fillColor=none;align=left;verticalAlign=middle;spacingLeft=4;spacingRight=4;overflow=hidden;points=[[0,0.5],[1,0.5]];portConstraint=eastwest;rotatable=0;whiteSpace=wrap;html=1;" vertex="1" parent="S_hXADYsKSw6LA0B8OWd-54">
          <mxGeometry y="90" width="180" height="30" as="geometry" />
        </mxCell>
        <mxCell id="S_hXADYsKSw6LA0B8OWd-59" style="edgeStyle=orthogonalEdgeStyle;rounded=0;orthogonalLoop=1;jettySize=auto;html=1;" edge="1" parent="S_hXADYsKSw6LA0B8OWd-54" source="S_hXADYsKSw6LA0B8OWd-58">
          <mxGeometry relative="1" as="geometry">
            <mxPoint x="230" y="245" as="targetPoint" />
          </mxGeometry>
        </mxCell>
        <mxCell id="S_hXADYsKSw6LA0B8OWd-58" value="Id Laboratorio&amp;nbsp;" style="text;strokeColor=none;fillColor=none;align=left;verticalAlign=middle;spacingLeft=4;spacingRight=4;overflow=hidden;points=[[0,0.5],[1,0.5]];portConstraint=eastwest;rotatable=0;whiteSpace=wrap;html=1;" vertex="1" parent="S_hXADYsKSw6LA0B8OWd-54">
          <mxGeometry y="120" width="180" height="30" as="geometry" />
        </mxCell>
        <mxCell id="S_hXADYsKSw6LA0B8OWd-60" value="Laboratorio" style="swimlane;fontStyle=0;childLayout=stackLayout;horizontal=1;startSize=30;horizontalStack=0;resizeParent=1;resizeParentMax=0;resizeLast=0;collapsible=1;marginBottom=0;whiteSpace=wrap;html=1;" vertex="1" parent="WIyWlLk6GJQsqaUBKTNV-1">
          <mxGeometry x="1120" y="630" width="180" height="90" as="geometry" />
        </mxCell>
        <mxCell id="S_hXADYsKSw6LA0B8OWd-61" value="Id Laboratorio" style="text;strokeColor=none;fillColor=none;align=left;verticalAlign=middle;spacingLeft=4;spacingRight=4;overflow=hidden;points=[[0,0.5],[1,0.5]];portConstraint=eastwest;rotatable=0;whiteSpace=wrap;html=1;" vertex="1" parent="S_hXADYsKSw6LA0B8OWd-60">
          <mxGeometry y="30" width="180" height="30" as="geometry" />
        </mxCell>
        <mxCell id="S_hXADYsKSw6LA0B8OWd-62" value="Nombre Laboratorio&amp;nbsp;" style="text;strokeColor=none;fillColor=none;align=left;verticalAlign=middle;spacingLeft=4;spacingRight=4;overflow=hidden;points=[[0,0.5],[1,0.5]];portConstraint=eastwest;rotatable=0;whiteSpace=wrap;html=1;" vertex="1" parent="S_hXADYsKSw6LA0B8OWd-60">
          <mxGeometry y="60" width="180" height="30" as="geometry" />
        </mxCell>
        <mxCell id="MAu5boPVuPjSb5pZh1iI-0" value="Id Raza" style="swimlane;fontStyle=0;childLayout=stackLayout;horizontal=1;startSize=30;horizontalStack=0;resizeParent=1;resizeParentMax=0;resizeLast=0;collapsible=1;marginBottom=0;whiteSpace=wrap;html=1;" vertex="1" parent="WIyWlLk6GJQsqaUBKTNV-1">
          <mxGeometry x="740" y="490" width="140" height="90" as="geometry" />
        </mxCell>
        <mxCell id="MAu5boPVuPjSb5pZh1iI-2" value="Id Raza" style="swimlane;fontStyle=0;childLayout=stackLayout;horizontal=1;startSize=30;horizontalStack=0;resizeParent=1;resizeParentMax=0;resizeLast=0;collapsible=1;marginBottom=0;whiteSpace=wrap;html=1;" vertex="1" parent="MAu5boPVuPjSb5pZh1iI-0">
          <mxGeometry y="30" width="140" height="60" as="geometry" />
        </mxCell>
        <mxCell id="MAu5boPVuPjSb5pZh1iI-3" value="Raza de mascota" style="text;strokeColor=none;fillColor=none;align=left;verticalAlign=middle;spacingLeft=4;spacingRight=4;overflow=hidden;points=[[0,0.5],[1,0.5]];portConstraint=eastwest;rotatable=0;whiteSpace=wrap;html=1;" vertex="1" parent="MAu5boPVuPjSb5pZh1iI-2">
          <mxGeometry y="30" width="140" height="30" as="geometry" />
        </mxCell>
      </root>
    </mxGraphModel>
  </diagram>
</mxfile>
